<svg width="27" height="59" viewBox="0 0 27 59" fill="none" xmlns="http://www.w3.org/2000/svg">
<path d="M7.62163 28.6719C5.50963 25.8475 1.17877 19.5726 0.751298 17.0687C0.216953 13.9389 -0.241068 4.47309 9.53007 1.41961C17.347 -1.02318 22.4565 4.26953 24.0341 7.22123C25.1537 9.00242 26.7212 13.8015 24.0341 18.7481C21.3471 23.6948 18.3343 28.4938 17.1638 30.275V40.5042M17.1638 40.5042C17.1638 41.0071 16.5785 41.6996 15.9206 41.6996C14.9733 41.6996 10.8032 41.7628 8.85495 41.6996C8.59167 41.6797 8.06712 41.5671 8.01657 40.5042C8.0035 40.2294 7.99578 39.6587 7.99188 38.9183M17.1638 40.5042V42.5173M14.904 31.1192C13.1874 31.1192 9.57729 31.1192 8.8696 31.1192C8.1619 31.1192 8.00604 31.2667 8.01657 31.3404C8.00916 32.2591 8.00071 33.5338 7.99507 34.8467M7.99507 34.8467H12.819M7.99507 34.8467C7.99159 35.6568 7.98917 36.4815 7.98873 37.246M7.98873 37.246H10.5287M7.98873 37.246C7.98838 37.854 7.98928 38.424 7.99188 38.9183M12.819 38.9183H7.99188M17.1638 43.8261V45.6074M17.1638 47.0979V49.1337M17.1638 50.4425V52.1148M17.1638 53.5689V55.3503M16.2 3.05826C17.5477 3.20596 20.5202 4.18817 21.628 6.93539M22.348 8.59702C22.5696 9.11397 22.9905 10.314 22.9019 10.9787M17.1638 56.9862C17.5702 56.9862 17.8997 57.3157 17.8997 57.7221C17.8997 58.1286 17.5702 58.458 17.1638 58.458C16.7573 58.458 16.4279 58.1286 16.4279 57.7221C16.4279 57.3157 16.7573 56.9862 17.1638 56.9862Z" stroke="black" stroke-opacity="0.6" stroke-linecap="round" stroke-linejoin="round"/>
</svg>
