<svg width="73" height="82" viewBox="0 0 73 82" fill="none" xmlns="http://www.w3.org/2000/svg">
<path d="M1.72282 21.0596L1.20847 21.3453V21.9337V60.0104V60.5988L1.72282 60.8845L35.9918 79.9229L36.4774 80.1927L36.9631 79.9229L71.2321 60.8845L71.7464 60.5988V60.0104V21.9337V21.3453L71.2321 21.0596L36.9631 2.02126L36.4774 1.75145L35.9918 2.02126L1.72282 21.0596Z" fill="#EAEAEA" stroke="#1C38CC" stroke-width="2"/>
<path d="M36.5166 0.625906L72.766 20.7174L70.5238 21.9635L36.5238 40.9635L2.25765 21.9557L0.208221 20.7553L36.5166 0.625906Z" fill="#405DF8"/>
<path d="M36.4774 40.9721L70.7412 21.9337L36.4831 2.88769L2.21484 21.9336L36.4774 40.9721Z" fill="#FBFBFB"/>
<path d="M36.5 41L0.214844 20.7539L0 61L36.5 81.3511V41Z" fill="#0C28BE"/>
<path d="M36.5 41L2.26953 21.9023L2.21487 60.0039L36.5 79.0745V41Z" fill="#DBDBDB"/>
</svg>
