<svg width="87" height="87" viewBox="0 0 87 87" fill="none" xmlns="http://www.w3.org/2000/svg">
<path d="M24.7003 39.5686L24.186 39.8543V40.4427V60.8907V61.4791L24.7003 61.7648L43.1035 71.9888L43.5891 72.2586L44.0748 71.9888L62.4779 61.7648L62.9923 61.4791V60.8907V40.4427V39.8543L62.4779 39.5686L44.0748 29.3446L43.5891 29.0748L43.1035 29.3446L24.7003 39.5686Z" fill="#EAEAEA" stroke="#1C38CC" stroke-width="2"/>
<path d="M43.6101 29L63.0768 39.7896L61.8727 40.4587L43.5947 50.4257L25.2124 40.4545L24.1118 39.8099L43.6101 29Z" fill="#405DF8"/>
<path d="M43.5891 50.6667L61.9894 40.4427L43.5922 30.2146L25.1894 40.4427L43.5891 50.6667Z" fill="#FBFBFB"/>
<path d="M43.6012 50.6817L24.1153 39.8092L24 61.4221L43.6012 72.3511V50.6817Z" fill="#0C28BE"/>
<path d="M43.6012 50.6817L25.2187 40.4259L25.1894 60.8872L43.6012 71.1285V50.6817Z" fill="#DBDBDB"/>
<path d="M1.70033 52.5686L1.18597 52.8543V53.4427V73.8907V74.4791L1.70033 74.7648L20.1035 84.9888L20.5891 85.2586L21.0748 84.9888L39.4779 74.7648L39.9923 74.4791V73.8907V53.4427V52.8543L39.4779 52.5686L21.0748 42.3446L20.5891 42.0748L20.1035 42.3446L1.70033 52.5686Z" fill="#EAEAEA" stroke="#1C38CC" stroke-width="2"/>
<path d="M20.6101 42L40.0768 52.7896L38.8727 53.4587L20.5947 63.4257L2.21237 53.4545L1.11179 52.8099L20.6101 42Z" fill="#405DF8"/>
<path d="M20.5891 63.6667L38.9894 53.4427L20.5922 43.2146L2.18939 53.4427L20.5891 63.6667Z" fill="#FBFBFB"/>
<path d="M20.6012 63.6817L1.11534 52.8092L0.999969 74.4221L20.6012 85.3511V63.6817Z" fill="#0C28BE"/>
<path d="M20.6012 63.6817L2.21874 53.4259L2.18939 73.8872L20.6012 84.1285V63.6817Z" fill="#DBDBDB"/>
<path d="M47.7003 52.5686L47.186 52.8543V53.4427V73.8907V74.4791L47.7003 74.7648L66.1035 84.9888L66.5891 85.2586L67.0748 84.9888L85.4779 74.7648L85.9923 74.4791V73.8907V53.4427V52.8543L85.4779 52.5686L67.0748 42.3446L66.5891 42.0748L66.1035 42.3446L47.7003 52.5686Z" fill="#EAEAEA" stroke="#1C38CC" stroke-width="2"/>
<path d="M66.6101 42L86.0768 52.7896L84.8727 53.4587L66.5947 63.4257L48.2124 53.4545L47.1118 52.8099L66.6101 42Z" fill="#405DF8"/>
<path d="M66.5891 63.6667L84.9894 53.4427L66.5922 43.2146L48.1894 53.4427L66.5891 63.6667Z" fill="#FBFBFB"/>
<path d="M66.6012 63.6817L47.1153 52.8092L47 74.4221L66.6012 85.3511V63.6817Z" fill="#0C28BE"/>
<path d="M66.6012 63.6817L48.2187 53.4259L48.1894 73.8872L66.6012 84.1285V63.6817Z" fill="#DBDBDB"/>
<path d="M24.7003 12.5686L24.186 12.8543V13.4427V33.8907V34.4791L24.7003 34.7648L43.1035 44.9888L43.5891 45.2586L44.0748 44.9888L62.4779 34.7648L62.9923 34.4791V33.8907V13.4427V12.8543L62.4779 12.5686L44.0748 2.34461L43.5891 2.07481L43.1035 2.34461L24.7003 12.5686Z" fill="#EAEAEA" stroke="#1C38CC" stroke-width="2"/>
<path d="M43.6101 2L63.0768 12.7896L61.8727 13.4587L43.5947 23.4257L25.2124 13.4545L24.1118 12.8099L43.6101 2Z" fill="#405DF8"/>
<path d="M43.5891 23.6667L61.9894 13.4427L43.5922 3.21463L25.1894 13.4427L43.5891 23.6667Z" fill="#FBFBFB"/>
<path d="M43.6012 23.6817L24.1153 12.8091L24 34.4221L43.6012 45.3511V23.6817Z" fill="#0C28BE"/>
<path d="M43.6012 23.6817L25.2187 13.4259L25.1894 33.8872L43.6012 44.1285V23.6817Z" fill="#DBDBDB"/>
</svg>
