<svg width="36" height="46" viewBox="0 0 36 46" fill="none" xmlns="http://www.w3.org/2000/svg">
<path d="M10.6249 8.46214L10.6249 8.46178C10.6218 7.9189 10.3962 7.40189 10.1333 6.91469C10.043 6.74717 9.94901 6.58441 9.85673 6.4245C9.67467 6.10906 9.49903 5.80473 9.36967 5.49698C8.93993 4.47467 8.56928 3.12661 8.93517 2.04363C9.11595 1.50854 9.47829 1.03269 10.1173 0.688082C10.7597 0.341633 11.6874 0.125 13 0.125C14.3126 0.125 15.2403 0.341633 15.8827 0.688082C16.5217 1.03268 16.8841 1.50854 17.0648 2.04362C17.4307 3.1266 17.0601 4.47466 16.6303 5.49698C16.501 5.80473 16.3253 6.10906 16.1433 6.42451C16.051 6.58441 15.957 6.74718 15.8667 6.91469C15.6038 7.40189 15.3782 7.9189 15.3751 8.46178L15.3751 8.46214L15.375 8.49965V8.5C15.375 9.25994 15.5009 9.66426 15.646 9.88184C15.7196 9.99229 15.7982 10.0545 15.866 10.0884C15.8994 10.1051 15.929 10.1143 15.9523 10.1193C15.9639 10.1218 15.9739 10.1232 15.9819 10.124L15.9925 10.1248L15.9967 10.125L15.9984 10.125L15.9992 10.125L15.9996 10.125C15.9998 10.125 16 10.125 16 10V10.125H22C24.1401 10.125 25.875 11.8599 25.875 14V20H26C25.875 20 25.875 20.0002 25.875 20.0004L25.875 20.0008L25.875 20.0016L25.875 20.0033L25.8752 20.0075L25.876 20.0181C25.8768 20.0261 25.8782 20.0361 25.8807 20.0477C25.8857 20.071 25.8949 20.1006 25.9116 20.134C25.9455 20.2018 26.0077 20.2804 26.1182 20.354C26.3357 20.4991 26.7401 20.625 27.5 20.625C27.6992 20.625 27.8735 20.6163 28.0261 20.6011C28.413 20.5624 28.7758 20.3738 29.113 20.1728C29.1986 20.1218 29.2822 20.0702 29.3645 20.0194C29.615 19.8649 29.8528 19.7182 30.0941 19.6192C31.0676 19.22 32.5228 18.7861 33.725 19.0882C34.3197 19.2376 34.8523 19.567 35.2388 20.1755C35.6274 20.7871 35.875 21.6912 35.875 23C35.875 24.3088 35.6274 25.2129 35.2388 25.8245C34.8523 26.433 34.3197 26.7624 33.725 26.9118C32.5228 27.2139 31.0676 26.78 30.0941 26.3808C29.8528 26.2818 29.615 26.1351 29.3645 25.9806C29.2822 25.9298 29.1986 25.8782 29.113 25.8272C28.7758 25.6262 28.413 25.4376 28.0261 25.3989C27.8735 25.3837 27.6992 25.375 27.5 25.375C26.7401 25.375 26.3357 25.5009 26.1182 25.646C26.0077 25.7196 25.9455 25.7982 25.9116 25.866C25.8949 25.8994 25.8857 25.929 25.8807 25.9523C25.8782 25.9639 25.8768 25.9739 25.876 25.9819L25.8752 25.9925L25.875 25.9967L25.875 25.9984L25.875 25.9992L25.875 25.9996C25.875 25.9998 25.875 26 26 26H25.875V32C25.875 34.1401 24.1401 35.875 22 35.875H16V36C16 35.875 15.9998 35.875 15.9996 35.875L15.9992 35.875L15.9984 35.875L15.9967 35.875L15.9925 35.8752L15.9819 35.876C15.9739 35.8768 15.9639 35.8782 15.9523 35.8807C15.929 35.8857 15.8994 35.8949 15.866 35.9116C15.7982 35.9455 15.7196 36.0077 15.646 36.1182C15.5009 36.3357 15.375 36.7401 15.375 37.5C15.375 37.8964 15.6065 38.3245 15.85 38.7139C15.917 38.821 15.9898 38.9326 16.0607 39.0412C16.1172 39.1278 16.1725 39.2125 16.2226 39.2914C16.3401 39.4768 16.4402 39.6478 16.5056 39.8016C16.9579 40.8664 17.4253 42.3944 17.1118 43.6464C16.9568 44.2657 16.6106 44.8179 15.9701 45.218C15.3261 45.6203 14.3747 45.875 13 45.875C11.6253 45.875 10.6739 45.6203 10.0299 45.218C9.38939 44.8179 9.04324 44.2657 8.88818 43.6464C8.57471 42.3944 9.0421 40.8664 9.49441 39.8016C9.55975 39.6478 9.65991 39.4768 9.77742 39.2914C9.82748 39.2125 9.88278 39.1277 9.93933 39.0411C10.0102 38.9325 10.083 38.821 10.15 38.7139C10.3935 38.3245 10.625 37.8964 10.625 37.5C10.625 36.7401 10.4991 36.3357 10.354 36.1182C10.2804 36.0077 10.2018 35.9455 10.134 35.9116C10.1006 35.8949 10.071 35.8857 10.0477 35.8807C10.0361 35.8782 10.0261 35.8768 10.0181 35.876L10.0075 35.8752L10.0033 35.875L10.0016 35.875L10.0008 35.875L10.0004 35.875C10.0002 35.875 10 35.875 10 36V35.875H4C1.8599 35.875 0.125 34.1401 0.125 32V25.5055C0.125045 25.5052 0.125096 25.505 0.125155 25.5047C0.126024 25.5006 0.128539 25.4912 0.135241 25.4778C0.148223 25.4518 0.179786 25.4054 0.256838 25.354C0.414257 25.2491 0.759941 25.125 1.5 25.125C1.98513 25.125 2.47878 25.319 2.98685 25.5636C3.11647 25.6261 3.24751 25.6921 3.37929 25.7585C3.75417 25.9474 4.13499 26.1393 4.50586 26.2596C5.47152 26.5728 6.74473 26.8244 7.78452 26.4591C8.30949 26.2747 8.77329 25.9336 9.10381 25.3709C9.43289 24.8106 9.625 24.0391 9.625 23C9.625 21.9678 9.43541 21.1866 9.11176 20.6045C8.78711 20.0207 8.33149 19.6446 7.81387 19.4181C6.78638 18.9685 5.52328 19.1118 4.55493 19.3468C4.14463 19.4464 3.72019 19.6378 3.30428 19.8253C3.20318 19.8709 3.10258 19.9162 3.00281 19.96C2.48321 20.1878 1.9816 20.375 1.5 20.375C0.759941 20.375 0.414257 20.2509 0.256838 20.146C0.179786 20.0946 0.148223 20.0482 0.135241 20.0222C0.128539 20.0088 0.126024 19.9994 0.125155 19.9953C0.125096 19.995 0.125045 19.9948 0.125 19.9945V14C0.125 11.8599 1.8599 10.125 4 10.125H10V10C10 10.125 10.0002 10.125 10.0004 10.125L10.0008 10.125L10.0016 10.125L10.0033 10.125L10.0075 10.1248L10.0181 10.124C10.0261 10.1232 10.0361 10.1218 10.0477 10.1193C10.071 10.1143 10.1006 10.1051 10.134 10.0884C10.2018 10.0545 10.2804 9.99229 10.354 9.88184C10.4991 9.66426 10.625 9.25994 10.625 8.5L10.625 8.49965L10.6249 8.46214Z" fill="#C4C4C4" stroke="black" stroke-width="0.25"/>
</svg>
